<svg width="38" height="38" viewBox="0 0 38 38" fill="none" xmlns="http://www.w3.org/2000/svg">
<g filter="url(#filter0_ddd)">
<rect x="5" y="4" width="28" height="28" rx="2" fill="white"/>
</g>
<circle cx="17.8333" cy="19.1667" r="1.16667" fill="#65499C"/>
<circle cx="20.1667" cy="16.8334" r="1.16667" fill="#65499C"/>
<path fill-rule="evenodd" clip-rule="evenodd" d="M12 29.6666C14.5774 29.6666 16.6667 27.5773 16.6667 25C16.6667 22.4227 14.5774 20.3333 12 20.3333C9.42271 20.3333 7.33337 22.4227 7.33337 25C7.33337 27.5773 9.42271 29.6666 12 29.6666ZM13.1651 27H14.0822L12.4103 22.8244H11.5188L9.89237 27H10.7867L11.1314 26.0515H12.8005L13.1651 27ZM11.9545 23.7985L12.5299 25.348H11.3906L11.9545 23.7985Z" fill="#65499C"/>
<path fill-rule="evenodd" clip-rule="evenodd" d="M26 15.6666C28.5774 15.6666 30.6667 13.5773 30.6667 11C30.6667 8.42265 28.5774 6.33331 26 6.33331C23.4227 6.33331 21.3334 8.42265 21.3334 11C21.3334 13.5773 23.4227 15.6666 26 15.6666ZM25.9887 8.82438H24.3196V13H25.7409C26.2783 12.9962 26.6173 12.9867 26.7578 12.9715C26.9818 12.9468 27.1698 12.8813 27.3217 12.775C27.4755 12.6667 27.5961 12.5234 27.6835 12.3449C27.7727 12.1645 27.8173 11.9794 27.8173 11.7895C27.8173 11.5483 27.749 11.3385 27.6123 11.16C27.4755 10.9815 27.28 10.8552 27.0255 10.7812C27.2059 10.6995 27.3483 10.577 27.4528 10.4137C27.5591 10.2504 27.6123 10.071 27.6123 9.87541C27.6123 9.69501 27.5695 9.53266 27.4841 9.38835C27.3986 9.24213 27.2914 9.12535 27.1622 9.038C27.035 8.95066 26.8897 8.89369 26.7264 8.86711C26.565 8.83862 26.3191 8.82438 25.9887 8.82438ZM25.1627 10.4849V9.51937H25.6469C26.0438 9.51937 26.284 9.52412 26.3676 9.53361C26.5081 9.5507 26.6135 9.60007 26.6837 9.68172C26.7559 9.76147 26.792 9.86591 26.792 9.99504C26.792 10.1299 26.7502 10.239 26.6666 10.3226C26.585 10.4042 26.472 10.4536 26.3277 10.4707C26.2479 10.4802 26.0438 10.4849 25.7153 10.4849H25.1627ZM25.1627 12.2965V11.1799H25.8435C26.227 11.1799 26.4758 11.1999 26.5897 11.2397C26.7056 11.2796 26.7939 11.3432 26.8546 11.4306C26.9154 11.5179 26.9458 11.6243 26.9458 11.7496C26.9458 11.8977 26.9059 12.0164 26.8261 12.1056C26.7483 12.193 26.6467 12.248 26.5214 12.2708C26.4397 12.2879 26.247 12.2965 25.9432 12.2965H25.1627Z" fill="#65499C"/>
<defs>
<filter id="filter0_ddd" x="0" y="0" width="38" height="38" filterUnits="userSpaceOnUse" color-interpolation-filters="sRGB">
<feFlood flood-opacity="0" result="BackgroundImageFix"/>
<feColorMatrix in="SourceAlpha" type="matrix" values="0 0 0 0 0 0 0 0 0 0 0 0 0 0 0 0 0 0 127 0"/>
<feOffset dy="3"/>
<feGaussianBlur stdDeviation="0.5"/>
<feColorMatrix type="matrix" values="0 0 0 0 0 0 0 0 0 0 0 0 0 0 0 0 0 0 0.2 0"/>
<feBlend mode="normal" in2="BackgroundImageFix" result="effect1_dropShadow"/>
<feColorMatrix in="SourceAlpha" type="matrix" values="0 0 0 0 0 0 0 0 0 0 0 0 0 0 0 0 0 0 127 0"/>
<feOffset dy="2"/>
<feGaussianBlur stdDeviation="1"/>
<feColorMatrix type="matrix" values="0 0 0 0 0 0 0 0 0 0 0 0 0 0 0 0 0 0 0.14 0"/>
<feBlend mode="normal" in2="effect1_dropShadow" result="effect2_dropShadow"/>
<feColorMatrix in="SourceAlpha" type="matrix" values="0 0 0 0 0 0 0 0 0 0 0 0 0 0 0 0 0 0 127 0"/>
<feOffset dy="1"/>
<feGaussianBlur stdDeviation="2.5"/>
<feColorMatrix type="matrix" values="0 0 0 0 0 0 0 0 0 0 0 0 0 0 0 0 0 0 0.12 0"/>
<feBlend mode="normal" in2="effect2_dropShadow" result="effect3_dropShadow"/>
<feBlend mode="normal" in="SourceGraphic" in2="effect3_dropShadow" result="shape"/>
</filter>
</defs>
</svg>
