<svg width="28" height="28" viewBox="0 0 28 28" fill="none" xmlns="http://www.w3.org/2000/svg">
<rect width="28" height="28" rx="2" fill="white"/>
<circle cx="12.8333" cy="15.1667" r="1.16667" fill="#65499C"/>
<circle cx="15.1667" cy="12.8334" r="1.16667" fill="#65499C"/>
<path fill-rule="evenodd" clip-rule="evenodd" d="M7.00004 25.6666C9.57737 25.6666 11.6667 23.5773 11.6667 21C11.6667 18.4227 9.57737 16.3333 7.00004 16.3333C4.42271 16.3333 2.33337 18.4227 2.33337 21C2.33337 23.5773 4.42271 25.6666 7.00004 25.6666ZM8.16508 23H9.08223L7.41028 18.8244H6.51876L4.89237 23H5.78674L6.13139 22.0515H7.8005L8.16508 23ZM6.95455 19.7985L7.52991 21.348H6.39058L6.95455 19.7985Z" fill="#65499C"/>
<path fill-rule="evenodd" clip-rule="evenodd" d="M21 11.6666C23.5774 11.6666 25.6667 9.57731 25.6667 6.99998C25.6667 4.42265 23.5774 2.33331 21 2.33331C18.4227 2.33331 16.3334 4.42265 16.3334 6.99998C16.3334 9.57731 18.4227 11.6666 21 11.6666ZM20.9887 4.82438H19.3196V9H20.7409C21.2783 8.9962 21.6173 8.98671 21.7578 8.97152C21.9818 8.94683 22.1698 8.88132 22.3217 8.77498C22.4755 8.66675 22.5961 8.52338 22.6835 8.34489C22.7727 8.1645 22.8173 7.97936 22.8173 7.78947C22.8173 7.54831 22.749 7.33849 22.6123 7.15999C22.4755 6.9815 22.28 6.85522 22.0255 6.78117C22.2059 6.69952 22.3483 6.57704 22.4528 6.41374C22.5591 6.25043 22.6123 6.07099 22.6123 5.87541C22.6123 5.69501 22.5695 5.53266 22.4841 5.38835C22.3986 5.24213 22.2914 5.12535 22.1622 5.038C22.035 4.95066 21.8897 4.89369 21.7264 4.86711C21.565 4.83862 21.3191 4.82438 20.9887 4.82438ZM20.1627 6.48494V5.51937H20.6469C21.0438 5.51937 21.284 5.52412 21.3676 5.53361C21.5081 5.5507 21.6135 5.60007 21.6837 5.68172C21.7559 5.76147 21.792 5.86591 21.792 5.99504C21.792 6.12986 21.7502 6.23904 21.6666 6.32259C21.585 6.40424 21.472 6.45361 21.3277 6.4707C21.2479 6.4802 21.0438 6.48494 20.7153 6.48494H20.1627ZM20.1627 8.29647V7.17993H20.8435C21.227 7.17993 21.4758 7.19987 21.5897 7.23975C21.7056 7.27962 21.7939 7.34323 21.8546 7.43058C21.9154 7.51793 21.9458 7.62427 21.9458 7.74959C21.9458 7.89771 21.9059 8.01638 21.8261 8.10563C21.7483 8.19298 21.6467 8.24805 21.5214 8.27083C21.4397 8.28792 21.247 8.29647 20.9432 8.29647H20.1627Z" fill="#65499C"/>
</svg>
