<svg width="77" height="77" viewBox="0 0 77 77" fill="none" xmlns="http://www.w3.org/2000/svg">
<circle cx="38.3333" cy="38.3333" r="38.3333" fill="#65499C"/>
<circle cx="37.5" cy="31.25" r="7.8125" fill="white"/>
<mask id="path-3-inside-1" fill="white">
<path d="M48.4354 52.3438C51.0254 52.3438 53.1878 50.1264 51.9356 47.8592C51.1504 46.4374 49.9995 45.1455 48.5485 44.0573C47.0976 42.9692 45.3751 42.106 43.4794 41.517C41.5837 40.9281 39.5519 40.625 37.5 40.625C35.4481 40.625 33.4163 40.9281 31.5206 41.517C29.6249 42.106 27.9024 42.9692 26.4515 44.0573C25.0005 45.1455 23.8496 46.4374 23.0644 47.8592C21.8122 50.1264 23.9746 52.3438 26.5646 52.3438L37.5 52.3438H48.4354Z"/>
</mask>
<path d="M48.4354 52.3438C51.0254 52.3438 53.1878 50.1264 51.9356 47.8592C51.1504 46.4374 49.9995 45.1455 48.5485 44.0573C47.0976 42.9692 45.3751 42.106 43.4794 41.517C41.5837 40.9281 39.5519 40.625 37.5 40.625C35.4481 40.625 33.4163 40.9281 31.5206 41.517C29.6249 42.106 27.9024 42.9692 26.4515 44.0573C25.0005 45.1455 23.8496 46.4374 23.0644 47.8592C21.8122 50.1264 23.9746 52.3438 26.5646 52.3438L37.5 52.3438H48.4354Z" fill="white" stroke="white" stroke-width="3.26087" mask="url(#path-3-inside-1)"/>
</svg>
