<svg width="48" height="48" viewBox="0 0 48 48" fill="none" xmlns="http://www.w3.org/2000/svg">
<rect width="48" height="48" rx="2" fill="#1F2023"/>
<path fill-rule="evenodd" clip-rule="evenodd" d="M24 22C28.4183 22 32 18.4183 32 14C32 9.58172 28.4183 6 24 6C19.5817 6 16 9.58172 16 14C16 18.4183 19.5817 22 24 22ZM43.5333 36.5637C44.0425 38.416 42.4427 40 40.5218 40H31.6537H24H14H7.47827C5.55728 40 3.95756 38.416 4.4667 36.5637C4.71861 35.6473 5.0714 34.7481 5.52242 33.8771C6.52751 31.9359 8.0007 30.172 9.85787 28.6863C11.715 27.2006 13.9198 26.022 16.3463 25.2179C18.7729 24.4139 21.3736 24 24 24C26.6264 24 29.2272 24.4139 31.6537 25.2179C34.0802 26.022 36.285 27.2006 38.1421 28.6863C39.9993 30.172 41.4725 31.9359 42.4776 33.8771C42.9286 34.7481 43.2814 35.6473 43.5333 36.5637Z" fill="#65499C"/>
</svg>
