<svg width="77" height="77" viewBox="0 0 77 77" fill="none" xmlns="http://www.w3.org/2000/svg">
<circle cx="37" cy="37" r="37" fill="#65499C"/>
<circle cx="36.625" cy="29.8125" r="7.8125" fill="white"/>
<mask id="path-3-inside-1" fill="white">
<path d="M47.5604 50.9062C50.1504 50.9062 52.3128 48.6889 51.0606 46.4217C50.2754 44.9999 49.1245 43.708 47.6735 42.6198C46.2226 41.5317 44.5001 40.6685 42.6044 40.0795C40.7087 39.4906 38.6769 39.1875 36.625 39.1875C34.5731 39.1875 32.5413 39.4906 30.6456 40.0795C28.7499 40.6685 27.0274 41.5317 25.5765 42.6198C24.1255 43.708 22.9746 44.9999 22.1894 46.4217C20.9372 48.6889 23.0996 50.9063 25.6896 50.9063L36.625 50.9062H47.5604Z"/>
</mask>
<path d="M47.5604 50.9062C50.1504 50.9062 52.3128 48.6889 51.0606 46.4217C50.2754 44.9999 49.1245 43.708 47.6735 42.6198C46.2226 41.5317 44.5001 40.6685 42.6044 40.0795C40.7087 39.4906 38.6769 39.1875 36.625 39.1875C34.5731 39.1875 32.5413 39.4906 30.6456 40.0795C28.7499 40.6685 27.0274 41.5317 25.5765 42.6198C24.1255 43.708 22.9746 44.9999 22.1894 46.4217C20.9372 48.6889 23.0996 50.9063 25.6896 50.9063L36.625 50.9062H47.5604Z" fill="white" stroke="white" stroke-width="3.26087" mask="url(#path-3-inside-1)"/>
</svg>
