<svg width="74" height="74" viewBox="0 0 74 74" fill="none" xmlns="http://www.w3.org/2000/svg">
<circle cx="37" cy="37" r="37" fill="#65499C"/>
<path fill-rule="evenodd" clip-rule="evenodd" d="M37 36.25C41.9705 36.25 46 32.4444 46 27.75C46 23.0556 41.9705 19.25 37 19.25C32.0294 19.25 28 23.0556 28 27.75C28 32.4444 32.0294 36.25 37 36.25ZM53.129 49.8523C52.3022 47.589 50.9057 45.5084 49.0208 43.7898C45.8327 40.883 41.5087 39.25 37 39.25C32.4913 39.25 28.1673 40.883 24.9792 43.7898C23.0943 45.5084 21.6978 47.589 20.871 49.8523C19.9234 52.4461 22.2386 54.75 25 54.75H37H49C51.7614 54.75 54.0765 52.4461 53.129 49.8523Z" fill="#1F2023"/>
</svg>
