<svg width="74" height="74" viewBox="0 0 74 74" fill="none" xmlns="http://www.w3.org/2000/svg">
<circle cx="37" cy="37" r="37" fill="#65499C"/>
<path d="M40.752 57H33.2487C32.2801 57 31.4421 56.346 31.2348 55.428L30.3958 51.66C29.2766 51.1842 28.2154 50.5892 27.2316 49.886L23.4449 51.056C22.5214 51.3417 21.5175 50.9646 21.0331 50.15L17.2732 43.848C16.7942 43.033 16.9592 42.005 17.6711 41.37L20.6085 38.77C20.4749 37.5922 20.4749 36.4038 20.6085 35.226L17.6711 32.632C16.9582 31.9967 16.793 30.9674 17.2732 30.152L21.0249 23.846C21.5093 23.0314 22.5132 22.6543 23.4367 22.94L27.2234 24.11C27.7265 23.7483 28.2502 23.4144 28.7921 23.11C29.3122 22.8254 29.8476 22.5677 30.3958 22.338L31.2368 18.574C31.4431 17.6559 32.2803 17.001 33.2487 17H40.752C41.7205 17.001 42.5576 17.6559 42.7639 18.574L43.6132 22.34C44.192 22.587 44.7557 22.8662 45.3015 23.176C45.8112 23.4616 46.3039 23.7747 46.7774 24.114L50.5661 22.944C51.489 22.6593 52.4917 23.0363 52.9759 23.85L56.7275 30.156C57.2066 30.971 57.0416 31.999 56.3297 32.634L53.3923 35.234C53.5258 36.4118 53.5258 37.6002 53.3923 38.778L56.3297 41.378C57.0416 42.013 57.2066 43.041 56.7275 43.856L52.9759 50.162C52.4917 50.9757 51.489 51.3527 50.5661 51.068L46.7774 49.898C46.298 50.2406 45.7998 50.5577 45.285 50.848C44.7445 51.1518 44.1871 51.4262 43.6153 51.67L42.7639 55.428C42.5568 56.3453 41.7199 56.9992 40.752 57ZM36.9921 29C32.4383 29 28.7467 32.5817 28.7467 37C28.7467 41.4183 32.4383 45 36.9921 45C41.546 45 45.2376 41.4183 45.2376 37C45.2376 32.5817 41.546 29 36.9921 29Z" fill="white"/>
</svg>
