<svg width="48" height="48" viewBox="0 0 48 48" fill="none" xmlns="http://www.w3.org/2000/svg">
<rect width="48" height="48" rx="2" fill="#1F2023"/>
<path d="M27.6401 44H20.3601C19.4203 44 18.6072 43.346 18.4061 42.428L17.5921 38.66C16.5062 38.1842 15.4765 37.5892 14.5221 36.886L10.8481 38.056C9.95208 38.3417 8.97805 37.9646 8.50808 37.15L4.86008 30.848C4.39526 30.033 4.5554 29.005 5.24608 28.37L8.09608 25.77C7.96648 24.5922 7.96648 23.4038 8.09608 22.226L5.24608 19.632C4.55438 18.9967 4.39418 17.9674 4.86008 17.152L8.50008 10.846C8.97005 10.0314 9.94408 9.65427 10.8401 9.94L14.5141 11.11C15.0022 10.7483 15.5103 10.4144 16.0361 10.11C16.5408 9.82539 17.0602 9.56769 17.5921 9.338L18.4081 5.574C18.6082 4.65594 19.4205 4.00099 20.3601 4H27.6401C28.5797 4.00099 29.3919 4.65594 29.5921 5.574L30.4161 9.34C30.9777 9.58703 31.5246 9.86616 32.0541 10.176C32.5486 10.4616 33.0267 10.7747 33.4861 11.114L37.1621 9.944C38.0575 9.65934 39.0303 10.0363 39.5001 10.85L43.1401 17.156C43.6049 17.971 43.4448 18.999 42.7541 19.634L39.9041 22.234C40.0337 23.4118 40.0337 24.6002 39.9041 25.778L42.7541 28.378C43.4448 29.013 43.6049 30.041 43.1401 30.856L39.5001 37.162C39.0303 37.9757 38.0575 38.3527 37.1621 38.068L33.4861 36.898C33.0209 37.2406 32.5376 37.5577 32.0381 37.848C31.5137 38.1518 30.9729 38.4262 30.4181 38.67L29.5921 42.428C29.3911 43.3453 28.5791 43.9992 27.6401 44ZM23.9921 16C19.5738 16 15.9921 19.5817 15.9921 24C15.9921 28.4183 19.5738 32 23.9921 32C28.4104 32 31.9921 28.4183 31.9921 24C31.9921 19.5817 28.4104 16 23.9921 16Z" fill="#65499C"/>
</svg>
